<svg xmlns="http://www.w3.org/2000/svg" xmlns:xlink="http://www.w3.org/1999/xlink" viewBox="0 0 335.29 377.2"><defs><linearGradient id="a" x1="118.78" y1="193.53" x2="118.78" y2="112.73" gradientUnits="userSpaceOnUse"><stop offset=".39" stop-color="#dadada" stop-opacity="0"/><stop offset="1" stop-color="#dadada"/></linearGradient><linearGradient id="c" x1="219.73" y1="153.23" x2="219.73" y2="69.24" xlink:href="#a"/><linearGradient id="b" x1="70.18" y1="229.57" x2="264.24" y2="229.57" gradientUnits="userSpaceOnUse"><stop offset="0" stop-color="#eeeded"/><stop offset="1" stop-color="#fff"/></linearGradient><linearGradient id="d" x1="61.25" y1="89.8" x2="271.94" y2="89.8" xlink:href="#b"/></defs><path fill="#265aa6" d="M303.85 340.52l-136.21 36.68-136.21-36.68-31.43-340.52h335.29l-31.44 340.52z"/><path fill="#449dd7" d="M167.64 27.58v320.37l.31.08 110.23-29.68 25.44-290.77h-135.98z"/><path fill="#fff" d="M167.52 112.73l-97.49 40.6 3.23 40.2 94.26-40.3 100.27-42.87 4.15-41.12-104.42 43.49z"/><path fill="url(#a)" d="M70.03 153.33l3.23 40.2 94.26-40.3v-40.5l-97.49 40.6z"/><path fill="url(#c)" d="M271.94 69.24l-104.42 43.49v40.5l100.27-42.87 4.15-41.12z"/><path fill="url(#b)" d="M70.18 153.33l3.24 40.2 144.62.46-3.23 53.6-47.59 13.4-45.75-11.55-2.78-33.27h-42.5l5.54 64.22 85.95 25.42 85.47-24.96 11.09-127.52h-194.06z"/><path d="M167.52 153.33h-97.49l3.23 40.2 94.26.3v-40.5zm0 107.53l-.46.13-45.74-11.55-2.77-33.27h-42.51l5.54 64.22 85.94 25.42v-44.95z" opacity=".05" fill="#1d1d1b"/><path fill="url(#d)" d="M61.25 69.24h210.69l-4.15 41.12h-201.46l-5.08-41.12z"/><path fill="#1d1d1b" opacity=".05" d="M167.52 69.24h-106.27l5.08 41.12h101.19v-41.12z"/></svg>