<svg xmlns="http://www.w3.org/2000/svg" viewBox="0 0 100 125" enable-background="new 0 0 100 100"><path d="M87.3 70.4l-1.8-1 1.3-2.2c.3-.5.1-1.1-.4-1.4-.5-.3-1.1-.1-1.4.4l-1.3 2.2-4-2.3 2.2-1c.5-.2.7-.8.5-1.3-.2-.5-.8-.7-1.3-.5l-3.5 1.6-5.2-3 6.1-2.9c.5-.2.7-.8.5-1.3-.2-.5-.8-.7-1.3-.5l-7.4 3.5-5.2-3 10-4.7c.5-.2.7-.8.5-1.3-.2-.5-.8-.7-1.3-.5l-11.2 5.3-2.4-1.4c.7-1.5 1.1-3.2 1.1-4.9 0-1.8-.4-3.4-1.1-4.9l2.4-1.4 11.1 5.1c.1.1.3.1.4.1.4 0 .7-.2.9-.6.2-.5 0-1.1-.5-1.3l-10-4.7 5.2-3 7.4 3.5c.1.1.3.1.4.1.4 0 .7-.2.9-.6.2-.5 0-1.1-.5-1.3l-6.1-2.9 5.2-3 3.5 1.6c.1.1.3.1.4.1.4 0 .7-.2.9-.6.2-.5 0-1.1-.5-1.3l-2.2-1 4.1-2.3 1.3 2.2c.2.3.5.5.9.5.2 0 .3 0 .5-.1.5-.3.6-.9.4-1.4l-1.3-2.2 1.8-1c.5-.3.6-.9.4-1.4-.3-.5-.9-.6-1.4-.4l-1.8 1-1.3-2.2c-.3-.5-.9-.6-1.4-.4-.5.3-.6.9-.4 1.4l1.3 2.2-4.1 2.3.2-2.4c0-.6-.4-1-.9-1.1-.6-.1-1 .4-1.1.9l-.3 3.8-5.2 3 .6-6.7c0-.6-.4-1-.9-1.1-.6 0-1 .4-1.1.9l-.7 8.1-5.2 3 .9-11c0-.6-.4-1-.9-1.1-.6 0-1 .4-1.1.9l-1 12.4-2.4 1.4c-1.9-2.7-5-4.6-8.5-4.9v-2.8l10.2-7.1c.5-.3.6-.9.3-1.4-.3-.5-.9-.6-1.4-.3l-9 6.3v-6l6.7-4.6c.5-.3.6-.9.3-1.4-.3-.5-.9-.6-1.4-.3l-5.7 3.9v-6l3.2-2.2c.5-.3.6-.9.3-1.4-.3-.5-.9-.6-1.4-.3l-2 1.4v-4.7h2.6c.6 0 1-.4 1-1s-.4-1-1-1h-2.7v-2c0-.6-.4-1-1-1s-1 .4-1 1v2.1h-2.6c-.6 0-1 .4-1 1s.4 1 1 1h2.6v4.7l-2-1.4c-.5-.3-1.1-.2-1.4.3-.3.5-.2 1.1.3 1.4l3.2 2.2v6l-5.5-3.8c-.5-.3-1.1-.2-1.4.3-.3.5-.2 1.1.3 1.4l6.7 4.6v6l-9.1-6.3c-.5-.3-1.1-.2-1.4.3s-.2 1.1.3 1.4l10 6.9v2.8c-3.5.3-6.6 2.2-8.5 4.9l-2.4-1.3-1-12.4c0-.6-.5-1-1.1-.9-.6 0-1 .5-.9 1.1l.9 11-5.2-3-.7-8.1c0-.6-.5-1-1.1-.9-.6 0-1 .5-.9 1.1l.6 6.7-5.2-3-.3-3.8c0-.6-.5-1-1.1-.9-.6 0-1 .5-.9 1.1l.2 2.4-4-2.3 1.3-2.2c.3-.5.1-1.1-.4-1.4-.5-.3-1.1-.1-1.4.4l-1.3 2.2-1.8-1c-.5-.3-1.1-.1-1.4.4-.3.5-.1 1.1.4 1.4l1.8 1-1.3 2.2c-.3.5-.1 1.1.4 1.4.2.1.3.1.5.1.3 0 .7-.2.9-.5l1.3-2.2 4.1 2.3-2.2 1c-.5.2-.7.8-.5 1.3.2.4.5.6.9.6.1 0 .3 0 .4-.1l3.5-1.6 5.2 3-6.1 2.9c-.5.2-.7.8-.5 1.3.2.4.5.6.9.6.1 0 .3 0 .4-.1l7.4-3.5 5.2 3-10 4.7c-.5.2-.7.8-.5 1.3.2.4.5.6.9.6.1 0 .3 0 .4-.1l11.2-5.3 2.4 1.4c-.7 1.5-1.1 3.2-1.1 4.9s.4 3.4 1.1 4.9l-2.4 1.4-11.3-5.4c-.5-.2-1.1 0-1.3.5-.2.5 0 1.1.5 1.3l10 4.7-5.2 3-7.4-3.5c-.5-.2-1.1 0-1.3.5-.2.5 0 1.1.5 1.3l6.1 2.9-5.2 3-3.5-1.6c-.5-.2-1.1 0-1.3.5-.2.5 0 1.1.5 1.3l2.2 1-4.1 2.3-1.3-2.1c-.3-.5-.9-.6-1.4-.4-.5.3-.6.9-.4 1.4l1.3 2.2-1.8 1c-.5.3-.6.9-.4 1.4.2.3.5.5.9.5.2 0 .3 0 .5-.1l1.8-1 1.3 2.2c.2.3.5.5.9.5.2 0 .3 0 .5-.1.5-.3.6-.9.4-1.4l-1.3-2.2 4-2.3-.2 2.4c0 .6.4 1 .9 1.1h.1c.5 0 1-.4 1-.9l.3-3.8 5.2-3-.6 6.7c0 .6.4 1 .9 1.1h.1c.5 0 1-.4 1-.9l.7-8.1 5.2-3-.9 11c0 .6.4 1 .9 1.1h.1c.5 0 1-.4 1-.9l1-12.4 2.4-1.4c1.9 2.7 5 4.6 8.5 4.9v2.8l-10.2 7.1c-.5.3-.6.9-.3 1.4.2.3.5.4.8.4.2 0 .4-.1.6-.2l9.1-6.3v6l-6.7 4.6c-.5.3-.6.9-.3 1.4.2.3.5.4.8.4.2 0 .4-.1.6-.2l5.5-3.8v6l-3.2 2.2c-.5.3-.6.9-.3 1.4.2.3.5.4.8.4.2 0 .4-.1.6-.2l2-1.4v4.7h-2.6c-.6 0-1 .4-1 1s.4 1 1 1h2.9v2.1c0 .6.4 1 1 1s1-.4 1-1v-2.1h2.6c.6 0 1-.4 1-1s-.4-1-1-1h-2.6v-4.7l2 1.4c.2.1.4.2.6.2.3 0 .6-.1.8-.4.3-.5.2-1.1-.3-1.4l-3.1-2.2v-6l5.5 3.8c.2.1.4.2.6.2.3 0 .6-.1.8-.4.3-.5.2-1.1-.3-1.4l-6.6-4.7v-6l9 6.3c.2.1.4.2.6.2.3 0 .6-.1.8-.4.3-.5.2-1.1-.3-1.4l-10.1-7.1v-2.8c3.5-.3 6.6-2.2 8.5-4.9l2.4 1.4 1 12.4c0 .5.5.9 1 .9h.1c.6 0 1-.5.9-1.1l-.9-11 5.2 3 .7 8.1c0 .5.5.9 1 .9h.1c.5 0 1-.5.9-1.1l-.6-6.7 5.2 3 .3 3.8c0 .5.5.9 1 .9h.1c.5 0 1-.5.9-1.1l-.2-2.5 4.1 2.3-1.3 2.2c-.3.5-.1 1.1.4 1.4.2.1.3.1.5.1.3 0 .7-.2.9-.5l1.3-2.2 1.8 1c.2.1.3.1.5.1.3 0 .7-.2.9-.5.3-.2.1-.8-.4-1.1zm-37.3-10.8c-5.3 0-9.6-4.3-9.6-9.6s4.3-9.6 9.6-9.6 9.6 4.3 9.6 9.6-4.3 9.6-9.6 9.6z" fill="#fff"/></svg>