<svg xmlns="http://www.w3.org/2000/svg" viewBox="0 0 100 125" enable-background="new 0 0 100 100"><path d="M92.2 46.5h-11.3l5.3-9.3c.9-1.5.3-3.4-1.1-4.2-1.5-.9-3.4-.3-4.2 1.1l-4.7 8.2-6.5-10.5h8.6c1.7 0 3.1-1.4 3.1-3.1 0-1.7-1.4-3.1-3.1-3.1h-6.9l5-7.5c1-1.5.6-3.6-.9-4.6-1.5-1-3.6-.6-4.6.9l-6.2 9.3-5.7-8.8c-.9-1.4-2.8-1.9-4.3-1-1.4.9-1.9 2.8-1 4.3l4.7 7.5h-13.2l4.6-8c.9-1.5.3-3.4-1.1-4.2-1.5-.9-3.4-.3-4.2 1.1l-4 6.9-4.4-7c-1-1.6-3-2-4.6-1.1-1.6 1-2 3-1.1 4.6l4.8 7.7h-11.6c-1.7 0-3.1 1.4-3.1 3.1 0 1.7 1.4 3.1 3.1 3.1h10.8l-7.3 12.7-5.4-8.7c-.9-1.4-2.8-1.9-4.3-1-1.4.9-1.9 2.8-1 4.3l4.6 7.4h-8.9c-1.8 0-3.3 1.5-3.3 3.3 0 1.8 1.5 3.3 3.3 3.3h10l-5 8.6c-.9 1.5-.3 3.4 1.1 4.2 1.5.9 3.4.3 4.2-1.1l4.8-8.3 7 11.2h-9.1c-1.7 0-3.1 1.4-3.1 3.1 0 1.7 1.4 3.1 3.1 3.1h9.6l-5 7.5c-1 1.5-.6 3.6.9 4.6 1.5 1 3.6.6 4.6-.9l5.1-7.6 4.9 7.9c.9 1.4 2.8 1.9 4.3 1 1.4-.9 1.9-2.8 1-4.3l-5.1-8.2h12.4l-4.3 7.4c-.9 1.5-.3 3.4 1.1 4.2 1.5.9 3.4.3 4.2-1.1l4.4-7.6 5.2 8.3c1 1.6 3 2 4.6 1.1 1.6-1 2-3 1.1-4.6l-4.8-7.7h10.4c1.7 0 3.1-1.4 3.1-3.1 0-1.7-1.4-3.1-3.1-3.1h-11.1l7.8-13.5 6.3 10.1c.9 1.4 2.8 1.9 4.3 1 1.4-.9 1.9-2.8 1-4.3l-5-8.1h9.3c1.8 0 3.3-1.5 3.3-3.3-.1-1.7-1.6-3.2-3.4-3.2zm-30.8 21.3h-19.8l-10.8-17.3 10.8-18.7h20.7l10.3 16.6-11.2 19.4z" fill="#fff"/></svg>