<svg xmlns="http://www.w3.org/2000/svg" viewBox="0 0 100 125" enable-background="new 0 0 100 100"><path d="M94.295 49.294h-10.061l6.312-6.311c.276-.276.276-.722 0-.997-.274-.277-.721-.277-.996 0l-7.31 7.308h-11.402l6.311-6.311c.274-.276.274-.722 0-.997-.274-.277-.722-.277-.998 0l-7.309 7.308h-17.139l12.119-12.118h10.336c.39 0 .705-.317.705-.706 0-.39-.315-.706-.705-.706h-8.926l8.063-8.063 10.337.001c.39 0 .705-.316.705-.706 0-.39-.315-.706-.705-.706h-8.926l7.112-7.113c.275-.275.275-.723 0-.998s-.721-.275-.996 0l-7.114 7.113v-8.926c0-.39-.315-.705-.705-.705s-.706.315-.706.705v10.337l-8.063 8.063v-8.926c0-.389-.315-.705-.705-.705-.391 0-.704.316-.704.705v10.337l-12.12 12.119v-17.138l7.309-7.308c.275-.276.275-.723 0-.998-.275-.276-.722-.276-.996 0l-6.313 6.312v-11.404l7.309-7.309c.275-.275.275-.723 0-.998-.275-.276-.722-.275-.996 0l-6.313 6.312v-10.059c.001-.391-.315-.706-.705-.706s-.706.315-.706.706v10.06l-6.312-6.312c-.275-.275-.721-.275-.998 0-.275.275-.275.723 0 .997l7.31 7.31v11.402l-6.312-6.311c-.275-.275-.721-.275-.998 0-.275.276-.275.722 0 .998l7.31 7.309v17.139l-12.119-12.12.001-10.337c0-.389-.317-.705-.706-.705-.39 0-.706.316-.706.705v8.926l-8.063-8.063v-10.337c0-.39-.316-.705-.706-.705-.39 0-.706.315-.706.705v8.926l-7.113-7.113c-.276-.276-.722-.276-.998 0-.275.275-.275.722 0 .998l7.113 7.113h-8.926c-.389 0-.705.316-.705.706 0 .389.316.705.705.705h10.337l8.063 8.063h-8.926c-.389 0-.706.316-.706.706 0 .39.316.706.706.706l10.336-.001 12.119 12.119h-17.136l-7.309-7.308c-.275-.277-.722-.277-.997 0-.276.275-.276.721 0 .997l6.311 6.311h-11.403l-7.31-7.308c-.275-.277-.722-.277-.997 0-.276.275-.276.721 0 .997l6.312 6.311h-10.059c-.39-.001-.706.316-.706.705 0 .39.316.706.706.706h10.059l-6.312 6.312c-.275.275-.275.724 0 .998.137.14.318.207.499.207.18 0 .36-.067.498-.207l7.31-7.31h11.403l-6.311 6.312c-.276.275-.276.724 0 .998.138.14.318.207.498.207.181 0 .361-.067.499-.207l7.309-7.31h17.14l-12.12 12.118h-10.337c-.389 0-.705.314-.705.706 0 .39.316.704.705.704h8.927l-8.063 8.063h-10.338c-.389 0-.705.316-.705.707 0 .39.316.704.705.704h8.926l-7.113 7.112c-.275.277-.275.724 0 1 .138.136.318.205.499.205s.361-.069.499-.205l7.113-7.115v8.928c0 .391.315.705.705.705s.705-.314.705-.705v-10.336l8.064-8.063v8.927c0 .389.316.704.705.704.39 0 .706-.315.706-.704v-10.341l12.119-12.118v17.14l-7.31 7.309c-.275.276-.275.724 0 1 .138.138.318.205.499.205s.362-.067.499-.205l6.312-6.313v11.402l-7.31 7.309c-.275.276-.275.723 0 .996.138.139.318.209.499.209s.362-.07.499-.206l6.312-6.312v10.057c-.001.393.315.707.705.707s.706-.314.706-.707v-10.057l6.312 6.312c.137.136.318.206.498.206.183 0 .361-.07.5-.206.274-.276.274-.723 0-.999l-7.31-7.309v-11.402l6.312 6.313c.137.138.318.205.498.205.183 0 .361-.067.5-.205.274-.276.274-.724 0-1l-7.31-7.309v-17.14l12.12 12.118v10.337c0 .392.314.707.705.707.389 0 .703-.315.703-.707v-8.927l8.063 8.063v10.338c0 .39.317.705.706.705s.705-.315.705-.705v-8.928l7.114 7.114c.138.137.317.207.497.207.182 0 .361-.07.5-.207.275-.275.275-.721 0-.998l-7.113-7.112h8.926c.391 0 .706-.315.706-.704 0-.391-.315-.707-.706-.707h-10.335l-8.064-8.063 8.927-.002c.39 0 .706-.313.706-.703 0-.391-.316-.706-.706-.706h-10.338l-12.119-12.117h17.139l7.309 7.311c.14.139.318.205.5.205.18 0 .361-.066.498-.205.274-.275.274-.724 0-.998l-6.311-6.313h11.402l7.309 7.311c.139.139.318.205.499.205s.36-.066.498-.205c.274-.275.274-.724 0-.998l-6.312-6.313h10.061c.391 0 .705-.315.705-.705 0-.389-.314-.706-.705-.706z" fill="#fff"/></svg>