<svg xmlns="http://www.w3.org/2000/svg" viewBox="0 0 48 60" enable-background="new 0 0 48 48"><path d="M24.001 48c-.552 0-1-.447-1-1v-46c0-.552.448-1 1-1 .553 0 1 .448 1 1v46c0 .553-.447 1-1 1zm0-33.334c-.272 0-.544-.11-.741-.328l-5.903-6.506c-.371-.409-.34-1.042.069-1.413.409-.372 1.042-.34 1.413.069l5.902 6.506c.371.409.341 1.042-.068 1.413-.192.174-.432.259-.672.259zm-.001 0c-.239 0-.48-.085-.671-.259-.409-.371-.44-1.003-.069-1.413l5.902-6.506c.371-.41 1.003-.44 1.412-.069.409.371.439 1.003.068 1.413l-5.901 6.506c-.197.218-.468.328-.741.328zm5.902 27.174c-.272 0-.543-.11-.741-.328l-5.901-6.507c-.371-.409-.34-1.042.069-1.413.41-.369 1.041-.34 1.413.069l5.901 6.507c.37.409.34 1.042-.069 1.413-.191.173-.431.259-.672.259zm-11.804 0c-.239 0-.48-.086-.671-.26-.409-.371-.44-1.003-.069-1.412l5.903-6.507c.371-.409 1.004-.44 1.413-.068.409.371.439 1.003.068 1.412l-5.902 6.507c-.198.217-.47.328-.742.328zm28.902-16.84h-46c-.552 0-1-.447-1-1 0-.552.448-1 1-1h46c.553 0 1 .448 1 1 0 .553-.447 1-1 1zm-12.666 0c-.272 0-.543-.11-.74-.328-.371-.409-.341-1.042.068-1.413l6.507-5.903c.408-.371 1.04-.341 1.412.069.371.409.341 1.042-.068 1.413l-6.507 5.902c-.192.174-.432.26-.672.26zm6.507 5.902c-.24 0-.48-.086-.672-.26l-6.507-5.902c-.409-.371-.439-1.003-.068-1.412.371-.41 1.003-.441 1.412-.069l6.507 5.903c.409.371.439 1.003.068 1.412-.197.218-.468.328-.74.328zm-33.68 0c-.272 0-.544-.11-.741-.328-.371-.409-.34-1.041.069-1.412l6.506-5.903c.409-.372 1.042-.34 1.413.069.371.409.34 1.042-.069 1.412l-6.506 5.902c-.192.174-.433.26-.672.26zm6.505-5.902c-.24 0-.48-.086-.671-.26l-6.506-5.902c-.409-.371-.44-1.003-.069-1.413s1.003-.44 1.413-.069l6.506 5.903c.409.371.44 1.003.069 1.413-.199.218-.47.328-.742.328zm-5.931 16.264c-.256 0-.512-.098-.707-.293-.391-.391-.391-1.023 0-1.414l32.531-32.528c.391-.391 1.023-.391 1.414 0s.391 1.023 0 1.414l-32.531 32.528c-.195.195-.451.293-.707.293zm25.287-25.285l-.05-.001c-.552-.027-.977-.496-.95-1.047l.527-10.831c.027-.552.515-.953 1.048-.951.552.027.977.496.95 1.047l-.526 10.831c-.027.536-.468.952-.999.952zm-.001 0c-.53 0-.972-.417-.998-.951-.026-.552.398-1.021.95-1.048l10.83-.527c.54-.025 1.021.398 1.048.95.026.552-.398 1.021-.95 1.048l-10.83.527-.05.001zm-18.568 28.871l-.05-.001c-.551-.027-.977-.496-.95-1.048l.528-10.83c.027-.552.501-.988 1.048-.95.551.027.977.496.95 1.048l-.528 10.83c-.026.535-.468.951-.998.951zm-10.306-10.303c-.53 0-.972-.416-.998-.951-.027-.552.399-1.021.95-1.048l10.832-.527c.546-.039 1.021.397 1.048.95.027.552-.399 1.021-.95 1.048l-10.832.527-.05.001zm36.117 6.717c-.256 0-.512-.098-.707-.293l-32.528-32.528c-.391-.391-.391-1.023 0-1.414s1.023-.391 1.414 0l32.528 32.528c.391.391.391 1.023 0 1.414-.196.195-.451.293-.707.293zm3.589-6.718l-.05-.001-10.83-.526c-.552-.027-.977-.496-.95-1.048.027-.552.511-.969 1.048-.95l10.83.526c.552.027.977.496.95 1.048-.027.535-.468.951-.998.951zm-10.308 10.304c-.53 0-.972-.416-.998-.951l-.524-10.83c-.026-.552.399-1.021.95-1.048.545-.03 1.021.398 1.048.95l.524 10.83c.026.552-.399 1.021-.95 1.048l-.05.001zm-18.564-28.871l-.049-.001-10.831-.526c-.552-.027-.977-.496-.951-1.047.027-.552.5-.968 1.047-.951l10.831.526c.552.027.977.496.951 1.047-.026.536-.468.952-.998.952zm-.002 0c-.53 0-.972-.417-.998-.952l-.527-10.83c-.027-.552.399-1.021.95-1.048.542-.03 1.021.398 1.048.951l.527 10.831c.027.552-.399 1.021-.95 1.048h-.05z" fill="#fff"/></svg>