<svg xmlns="http://www.w3.org/2000/svg" viewBox="0 0 100 125" enable-background="new 0 0 100 100"><path d="M70.5 47.5h-12.394l-1.036-1.036 9.193-9.192c.977-.976.977-2.559 0-3.535-.977-.977-2.559-.977-3.535 0l-9.193 9.192-1.035-1.035v-12.394c0-1.381-1.119-2.5-2.5-2.5s-2.5 1.119-2.5 2.5v12.394l-1.036 1.036-9.193-9.192c-.977-.977-2.559-.977-3.535 0-.977.976-.977 2.559 0 3.535l9.193 9.192-1.035 1.035h-12.394c-1.381 0-2.5 1.119-2.5 2.5s1.119 2.5 2.5 2.5h12.394l1.036 1.036-9.193 9.192c-.977.976-.977 2.559 0 3.535.488.488 1.128.732 1.768.732s1.279-.244 1.768-.732l9.193-9.192 1.036 1.036v12.393c0 1.381 1.119 2.5 2.5 2.5s2.5-1.119 2.5-2.5v-12.394l1.036-1.036 9.193 9.192c.488.488 1.128.732 1.768.732s1.279-.244 1.768-.732c.977-.976.977-2.559 0-3.535l-9.193-9.192 1.036-1.036h12.39c1.381 0 2.5-1.119 2.5-2.5s-1.119-2.499-2.5-2.499zm-16.964 2.5l-3.536 3.536-3.536-3.536 3.536-3.536 3.536 3.536z" fill="#fff"/></svg>