<svg xmlns="http://www.w3.org/2000/svg" viewBox="0 0 100 125"><path d="M49.875 6.969a1 1 0 0 0-.875 1.031v12.844l-10.375-8.625a1 1 0 0 0-.719-.25 1 1 0 0 0-.531 1.781l11.625 9.688v24.844l-21.438-12.188-2.625-15.156a1 1 0 0 0-1.156-.844 1 1 0 0 0-.813 1.156l2.344 13.594-11.813-6.719a1 1 0 0 0-.594-.156 1 1 0 0 0-.406 1.875l11.531 6.531-12.406 4.563a1 1 0 1 0 .688 1.875l14-5.125 21.688 12.313-21.719 12.313-13.969-5.156a1 1 0 0 0-.5-.063 1 1 0 0 0-.188 1.938l12.375 4.594-11.5 6.5a1 1 0 1 0 1 1.719l11.813-6.688-2.344 13.563a1 1 0 1 0 1.969.344l2.625-15.188 21.438-12.188v24.844l-11.625 9.688a1 1 0 1 0 1.25 1.531l10.375-8.625v12.875a1 1 0 1 0 2 0v-12.875l10.375 8.625a1 1 0 1 0 1.25-1.531l-11.625-9.688v-24.844l21.438 12.188 2.625 15.188a1 1 0 1 0 1.969-.344l-2.344-13.563 11.813 6.688a1 1 0 1 0 1-1.719l-11.5-6.5 12.375-4.594a1 1 0 0 0-.5-1.938 1 1 0 0 0-.188.063l-13.969 5.156-21.719-12.313 21.688-12.313 14 5.125a1 1 0 1 0 .688-1.875l-12.406-4.563 11.531-6.531a1 1 0 0 0-.563-1.875 1 1 0 0 0-.438.156l-11.813 6.719 2.344-13.594a1 1 0 0 0-1.125-1.156 1 1 0 0 0-.844.844l-2.625 15.156-21.438 12.188v-24.844l11.625-9.688a1 1 0 1 0-1.25-1.531l-10.375 8.625v-12.844a1 1 0 0 0-1.125-1.031z" fill="#fff"/></svg>