<svg xmlns="http://www.w3.org/2000/svg" viewBox="0 0 100 125" enable-background="new 0 0 100 100"><path d="M87.2 56.5l-11.8 7-7.9-4.6 6-3.6c.5-.3.6-.9.4-1.4-.3-.5-.9-.6-1.4-.4l-7 4.1-13.5-7.6 13.5-7.8 7 4.1c.2.1.3.1.5.1.3 0 .7-.2.9-.5.3-.5.1-1.1-.4-1.4l-6-3.6 7.9-4.6 11.8 7c.2.1.3.1.5.1.3 0 .7-.2.9-.5.3-.5.1-1.1-.4-1.4l-10.8-6.4 9.9-5.7c.5-.3.6-.9.4-1.4-.3-.5-.9-.6-1.4-.4l-9.9 5.7-.1-12.3c0-.5-.5-1-1-1-.6 0-1 .5-1 1l.1 13.7-7.9 4.6-.1-7c0-.5-.5-1-1-1-.6 0-1 .5-1 1l.1 8.1-13.5 7.9v-15.6l7.1-4c.5-.3.7-.9.4-1.4-.3-.5-.9-.7-1.4-.4l-6.1 3.5v-9.2l12-6.7c.5-.3.7-.9.4-1.4-.3-.5-.9-.6-1.4-.4l-11 6.3v-11.5c0-.6-.4-1-1-1s-1 .4-1 1v11.5l-11-6.2c-.5-.3-1.1-.1-1.4.4-.3.5-.1 1.1.4 1.4l12 6.7v9.2l-6.1-3.5c-.5-.3-1.1-.1-1.4.4-.3.5-.1 1.1.4 1.4l7.1 4v15.5l-13.5-7.8.1-8.1c0-.6-.4-1-1-1-.5 0-1 .4-1 1l-.1 7-7.9-4.6.1-13.8c0-.6-.4-1-1-1-.5 0-1 .4-1 1l-.1 12.6-9.9-5.7c-.5-.3-1.1-.1-1.4.4s-.1 1.1.4 1.4l9.9 5.7-10.8 6.4c-.5.3-.6.9-.4 1.4.2.3.5.5.9.5.2 0 .3 0 .5-.1l11.8-7 7.9 4.6-6 3.6c-.5.3-.6.9-.4 1.4.2.3.5.5.9.5.2 0 .3 0 .5-.1l7-4.1 13.5 7.5-13.5 7.8-7-4.1c-.5-.3-1.1-.1-1.4.4-.3.5-.1 1.1.4 1.4l6 3.6-7.9 4.6-11.8-7c-.5-.3-1.1-.1-1.4.4-.3.5-.1 1.1.4 1.4l10.8 6.4-9.9 5.7c-.5.3-.6.9-.4 1.4.2.3.5.5.9.5.2 0 .3 0 .5-.1l9.9-5.7.1 12.3c0 .5.5 1 1 1 .6 0 1-.5 1-1l-.1-13.7 7.9-4.6.1 7c0 .5.5 1 1 1 .6 0 1-.5 1-1l-.1-8.1 13.5-7.9v15.5l-7.1 4c-.5.3-.7.9-.4 1.4.3.5.9.7 1.4.4l6.1-3.4v9.2l-12 6.7c-.5.3-.7.9-.4 1.4.3.5.9.7 1.4.4l11-6.3v11.5c0 .6.4 1 1 1s1-.4 1-1v-11.5l11 6.2c.2.1.3.1.5.1.3 0 .7-.2.9-.5.3-.5.1-1.1-.4-1.4l-12-6.7v-9.2l6.1 3.4c.2.1.3.1.5.1.3 0 .7-.2.9-.5.3-.5.1-1.1-.4-1.4l-7.1-4v-15.4l13.5 7.8-.1 8.1c0 .6.4 1 1 1 .5 0 1-.4 1-1l.1-7 7.9 4.6-.1 13.8c0 .6.4 1 1 1 .5 0 1-.4 1-1l.1-12.6 9.9 5.7c.2.1.3.1.5.1.3 0 .7-.2.9-.5.3-.5.1-1.1-.4-1.4l-9.9-5.7 10.8-6.4c.5-.3.6-.9.4-1.4s-.9-.6-1.4-.3z" fill="#fff"/></svg>