<svg xmlns="http://www.w3.org/2000/svg" viewBox="0 0 100 125" enable-background="new 0 0 100 100"><path d="M91.9 64.1c-.3-.5-.9-.7-1.3-.4l-7.8 4-6.2-3.6 11.6-6c.5-.3.7-.9.4-1.3-.3-.5-.9-.7-1.3-.4l-12.8 6.6-6.7-3.9 15.8-8.3.3-.2.1-.1.1-.1v-.1c0-.1 0-.1.1-.2v-.4c0-.1 0-.1-.1-.2v-.1l-.1-.1-.1-.2s-.1-.1-.2-.1l-.1-.1-15.8-8.2 6.7-3.9 12.7 6.6c.1.1.3.1.5.1.4 0 .7-.2.9-.5.3-.5.1-1.1-.4-1.3l-11.6-6 6.2-3.6 7.8 4c.1.1.3.1.5.1.4 0 .7-.2.9-.5.3-.5.1-1.1-.4-1.3l-6.8-3.4 2.5-1.4c.5-.3.6-.9.4-1.4-.3-.5-.9-.6-1.4-.4l-2.5 1.4.3-7.5c0-.6-.4-1-1-1-.5 0-1 .4-1 1l-.4 8.8-6.2 3.6.7-13.1c0-.6-.4-1-1-1-.5 0-1 .4-1 1l-.6 14.3-6.7 3.9.8-17.8v-.3c0-.1 0-.1-.1-.2v-.1l-.1-.1c0-.1-.1-.1-.1-.1l-.1-.1-.2-.1h-.6s-.1 0-.1.1h-.1l-15.3 9.5v-7.8l12.1-7.7c.5-.3.6-.9.3-1.4-.3-.5-.9-.6-1.4-.3l-11 7v-7.1l7.4-4.7c.5-.3.6-.9.3-1.4-.3-.5-.9-.6-1.4-.3l-6.3 4v-2.8c0-.6-.4-1-1-1s-1 .4-1 1v2.9l-6.3-4c-.5-.3-1.1-.2-1.4.3-.3.4-.2 1 .3 1.3l7.4 4.7v7.1l-11-7c-.5-.3-1.1-.2-1.4.3-.3.5-.2 1.1.3 1.4l12.1 7.7v7.8l-15.1-9.6s-.1 0-.1-.1h-.7c-.1 0-.1 0-.2.1l-.2.1c-.1 0-.1.1-.1.1l-.1.1v.1l-.1.2v.3l.8 17.8-6.7-3.9-.6-14.3c0-.6-.5-1-1-1-.6 0-1 .5-1 1l.6 13-6.2-3.6-.4-8.7c0-.6-.5-1-1-1-.6 0-1 .5-1 1l.3 7.5-2.5-1.4c-.5-.3-1.1-.1-1.4.4-.3.5-.1 1.1.4 1.4l2.5 1.4-6.6 3.5c-.5.3-.7.9-.4 1.3.2.3.5.5.9.5.2 0 .3 0 .5-.1l7.8-4 6.2 3.6-11.6 6c-.5.3-.7.9-.4 1.3.2.3.5.5.9.5.2 0 .3 0 .5-.1l12.5-6.4 6.7 3.9-15.8 8.3-.1.1-.2.1s-.1.1-.1.2l-.1.1v.1c0 .1 0 .1-.1.2v.4c0 .1 0 .1.1.2v.1l.1.1.1.1c.1.1.2.2.3.2l15.8 8.2-6.7 3.7-12.7-6.6c-.5-.3-1.1-.1-1.3.4-.3.5-.1 1.1.4 1.3l11.6 6-6.2 3.6-7.8-4c-.5-.3-1.1-.1-1.3.4-.3.5-.1 1.1.4 1.3l6.6 3.5-2.5 1.4c-.5.3-.6.9-.4 1.4.2.3.5.5.9.5.2 0 .3 0 .5-.1l2.5-1.4-.3 7.5c0 .6.4 1 1 1 .5 0 1-.4 1-1l.4-8.8 6.2-3.6-.7 13.2c0 .6.4 1 1 1 .5 0 1-.4 1-1l.6-14.3 6.7-3.9-.8 17.8v.3c0 .1 0 .1.1.2v.1l.1.1.1.1.3.2h.1l.3.1c.1 0 .2 0 .3-.1h.2l15.2-9.6v7.8l-12.1 7.7c-.5.3-.6.9-.3 1.4.2.3.5.5.8.5.2 0 .4-.1.5-.2l11-7v7.1l-7.3 4.7c-.5.3-.6.9-.3 1.4.2.3.5.5.8.5.2 0 .4-.1.5-.2l6.3-4v2.9c0 .6.4 1 1 1s1-.4 1-1v-2.9l6.3 4c.5.3 1.1.2 1.4-.3.3-.5.2-1.1-.3-1.4l-7.3-4.7v-7.1l11 7c.5.3 1.1.2 1.4-.3.3-.5.2-1.1-.3-1.4l-12.1-7.7v-7.8l15.1 9.6h.2l.3.1c.1 0 .2 0 .3-.1h.1c.1 0 .2-.1.3-.2v-.1l.1-.1v-.1l.1-.2v-.3l-.8-17.8 6.7 3.9.6 14.3c0 .5.5 1 1 1 .6 0 1-.5 1-1l-.6-13 6.2 3.6.4 8.7c0 .5.5 1 1 1 .6 0 1-.5 1-1l-.3-7.5 2.5 1.4c.2.1.3.1.5.1.3 0 .7-.2.9-.5.3-.5.1-1.1-.4-1.4l-2.4-1.4 6.6-3.5c.6-.3.7-.9.5-1.4zm-10.9-14.1l-15.3 8-7.5-4.3 9.9-2.6c.1 0 .2-.1.3-.2l.2-.2s0-.1.1-.1l.1-.1v-.6s0-.1-.1-.1l-.1-.2c0-.1-.1-.1-.1-.1l-.1-.1-.2-.1s-.1 0-.1-.1l-9.9-2.6 7.5-4.3 15.3 7.7zm-29 0l3.8-2.2 8.2 2.2-8.2 2.2-3.8-2.2zm-1-1.7v-4.4l6-6-2.2 8.2-3.8 2.2zm-2-4.4v4.4l-3.8-2.2-2.2-8.2 6 6zm-1 6.1l-3.8 2.2-8.2-2.2 8.2-2.2 3.8 2.2zm1 1.7v4.4l-6 6 2.2-8.2 3.8-2.2zm2 4.4v-4.4l3.8 2.2 2.2 8.2-6-6zm14.5-33l-.7 17.2-7.5 4.3 2.6-9.9v-.5c0-.1 0-.1-.1-.2l-.1-.2s0-.1-.1-.1c0 0-.1-.1-.2-.1l-.2-.1h-.6c-.1 0-.1 0-.2.1l-.2.1s-.1 0-.1.1l-7.1 7.2v-8.7l14.5-9.2zm-31 0l14.5 9.3v8.6l-7.2-7.2s-.1 0-.1-.1l-.2-.1c-.1 0-.1 0-.2-.1h-.6l-.2.1-.2.1s0 .1-.1.1l-.1.2c0 .1 0 .1-.1.2v.5l2.6 9.9-7.5-4.3-.6-17.2zm-15.5 26.9l15.3-8 7.5 4.3-9.9 2.7s-.1 0-.1.1l-.2.1c-.1 0-.1.1-.1.1l-.1.1-.1.2s0 .1-.1.1v.6c0 .1 0 .1.1.1 0 0 0 .1.1.1.1.1.1.2.2.2l.3.2 9.9 2.6-7.6 4.5-15.2-8zm15.5 26.9l.7-17.2 7.5-4.3-2.6 9.9v.5c0 .1 0 .1.1.2l.1.2s0 .1.1.1h.1s.1.1.2.1l.2.1h.4c.1 0 .2 0 .3-.1h.1c.1 0 .2-.1.2-.1l7.1-7.3v8.7l-14.5 9.2zm31 0l-14.5-9.3v-8.6l7.2 7.2c.1.1.1.1.2.1h.1l.3.1h.4l.2-.1.2-.1s0-.1.1-.1l.1-.2c0-.1 0-.1.1-.2v-.5l-2.6-9.9 7.5 4.3.7 17.3z" fill="#fff"/></svg>