<svg xmlns="http://www.w3.org/2000/svg" viewBox="0 0 29 37.5"><path d="M27.615 22.297l-2.273-1.366 1.495-.95c.233-.148.302-.457.153-.691-.147-.232-.456-.301-.69-.153l-1.916 1.218-1.901-1.143 2.917-1.379c.249-.118.355-.416.238-.666-.118-.249-.415-.356-.666-.238l-3.52 1.664-.76-.457-.037-.013-.008-.011-1.729-3.112 1.738-3.127.035-.01.76-.456 3.52 1.664.213.048c.188 0 .367-.105.453-.286.117-.25.011-.548-.238-.666l-2.917-1.378 1.902-1.143 1.917 1.218c.083.053.176.078.268.078.165 0 .327-.082.422-.232.148-.233.08-.542-.153-.69l-1.495-.95 2.273-1.366c.236-.142.314-.45.171-.686-.142-.237-.448-.313-.685-.171l-2.274 1.366-.138-1.766c-.021-.275-.271-.477-.538-.459-.274.021-.48.262-.459.538l.176 2.264-1.901 1.143.151-3.223c.013-.276-.2-.51-.476-.523-.26-.013-.51.2-.523.476l-.183 3.888-.76.457-.036.033h-3.423l-1.718-3.093v-.758l3.239-2.159c.23-.153.292-.463.139-.693-.153-.23-.463-.292-.693-.139l-2.685 1.789v-2.217l2.031-1.016c.247-.124.348-.424.224-.671-.123-.247-.424-.346-.671-.224l-1.584.793v-2.153c0-.276-.224-.5-.5-.5s-.5.224-.5.5v2.153l-1.584-.792c-.246-.123-.547-.023-.671.224-.123.247-.023.547.224.671l2.031 1.015v2.217l-2.684-1.789c-.23-.153-.54-.091-.693.139-.153.229-.091.54.139.693l3.238 2.159v.757l-1.717 3.091h-3.424l-.035-.033-.761-.457-.182-3.889c-.014-.276-.249-.489-.523-.476-.275.013-.488.247-.476.523l.15 3.223-1.9-1.142.175-2.265c.021-.275-.185-.516-.46-.537-.286-.024-.516.185-.537.46l-.136 1.766-2.274-1.367c-.236-.143-.544-.066-.686.171-.142.236-.066.543.172.686l2.273 1.366-1.495.95c-.232.148-.302.457-.153.69.095.15.257.232.422.232.092 0 .185-.025.268-.078l1.917-1.218 1.901 1.143-2.916 1.378c-.249.118-.355.416-.238.666.086.181.266.286.453.286l.213-.048 3.519-1.664.761.457.035.01 1.737 3.127-1.735 3.123-.038.013-.761.457-3.519-1.664c-.251-.118-.548-.011-.666.238-.117.25-.011.548.238.666l2.916 1.379-1.9 1.142-1.917-1.217c-.233-.149-.542-.08-.69.154-.148.233-.079.542.154.69l1.495.95-2.274 1.366c-.236.143-.314.45-.171.686.094.156.259.243.429.243.088 0 .177-.023.257-.071l2.274-1.367.137 1.766c.021.262.239.461.498.461l.039-.001c.275-.021.481-.262.46-.537l-.175-2.264 1.9-1.143-.151 3.222c-.013.276.2.51.476.523l.024.001c.265 0 .486-.209.499-.477l.183-3.888.76-.457.036-.033h3.424l1.718 3.091v.757l-3.239 2.16c-.229.153-.292.464-.139.693.097.145.255.223.417.223.095 0 .191-.027.276-.084l2.685-1.79-.003 2.221-2.031 1.016c-.247.124-.347.424-.224.671.088.175.265.276.448.276.075 0 .151-.017.223-.053l1.584-.792v2.152c0 .276.224.5.5.5s.5-.224.5-.5v-2.152l1.585.792c.247.122.548.023.671-.224s.023-.547-.224-.671l-2.032-1.015.001-2.218 2.684 1.79c.23.153.54.091.693-.139.153-.23.092-.54-.139-.693l-3.238-2.16v-.758l1.716-3.089h3.426l.035.033.76.456.183 3.889c.013.268.234.477.499.477l.025-.001c.275-.013.488-.247.475-.523l-.151-3.222 1.901 1.143-.176 2.265c-.021.275.185.516.46.537l.039.001c.259 0 .477-.199.498-.461l.137-1.766 2.274 1.366c.081.048.169.071.257.071.17 0 .336-.086.43-.243.14-.238.063-.545-.174-.688zm-10.343-4.335h-1.144l-.556 1-1.073 1.932-1.073-1.932-.556-1h-3.291l1.074-1.933.573-1.029-.571-1.029-1.073-1.932h3.29l.556-1 1.073-1.933 1.074 1.933.556 1h3.289l-1.073 1.932-.573 1.029.572 1.029 1.073 1.933h-2.147z" fill="#fff"/></svg>