<svg xmlns="http://www.w3.org/2000/svg" viewBox="0 0 100 125" enable-background="new 0 0 100 100"><path d="M90.08 69.418l-10.592-6.046 9.082-2.534c.127-.036.234-.119.299-.234.065-.116.081-.252.045-.38l-1.338-4.8c-.074-.266-.348-.419-.615-.345l-14.774 4.122-16.159-9.225 16.159-9.225 14.774 4.123c.268.073.541-.081.615-.346l1.338-4.8c.036-.126.021-.263-.045-.378-.064-.116-.172-.2-.299-.235l-9.082-2.535 10.592-6.045c.113-.066.197-.175.232-.302.036-.128.018-.263-.048-.379l-.044-.076-.053-.137-2.197-3.805-.177-.31-.022-.036-.096-.165c-.136-.238-.442-.32-.679-.182l-10.449 6.032 2.325-8.859c.07-.266-.088-.538-.354-.608l-4.82-1.266c-.127-.034-.263-.015-.377.051-.113.067-.196.176-.229.303l-3.831 14.585-16.306 9.415v-18.525l10.906-10.787c.195-.193.197-.509.004-.705l-3.505-3.543c-.094-.094-.217-.147-.351-.148h-.004c-.129 0-.257.052-.35.145l-6.701 6.628v-12.372c0-.275-.226-.498-.499-.498h-4.983c-.275 0-.498.223-.498.498v12.416l-6.712-6.581c-.096-.092-.223-.143-.355-.143-.131.002-.258.056-.35.149l-3.49 3.559c-.192.197-.188.512.008.704l10.899 10.686v18.519l-16.15-9.324-3.924-14.689c-.071-.264-.344-.421-.61-.351l-4.813 1.286c-.128.034-.237.118-.303.232-.066.114-.085.25-.051.378l2.384 8.919-10.575-6.104c-.239-.138-.543-.056-.681.182l-.027.046-.09.117-2.149 3.763-.225.389-.023.042-.075.133c-.137.238-.054.542.186.679l10.782 6.155-9.044 2.566c-.127.036-.234.122-.299.236s-.08.251-.044.379l1.361 4.793c.036.127.12.235.236.299.115.065.252.081.378.044l14.684-4.167 16.065 9.173-16.065 9.173-14.684-4.168c-.264-.073-.541.081-.614.345l-1.361 4.794c-.075.265.078.539.343.615l9.044 2.567-10.781 6.156c-.239.138-.322.441-.186.681l.075.13.023.043 2.374 4.154.09.114.027.048c.138.239.441.32.681.182l10.575-6.105-2.384 8.92c-.034.13-.016.264.051.378.066.114.175.199.303.231l4.813 1.287c.266.07.539-.088.61-.354l3.924-14.687 16.15-9.324v18.697l-10.899 10.685c-.196.192-.2.507-.008.705l3.49 3.56c.091.093.219.146.35.146.133.002.26-.047.355-.14l6.712-6.583v12.238c0 .276.223.498.498.498h4.983c.273 0 .499-.222.499-.498v-12.193l6.701 6.629c.196.194.513.192.704-.004l3.505-3.544c.093-.094.145-.221.143-.353 0-.132-.052-.259-.146-.352l-10.907-10.786v-18.705l16.306 9.415 3.831 14.584c.067.266.343.426.606.355l4.82-1.266c.126-.033.236-.117.304-.229.067-.115.085-.25.051-.379l-2.325-8.858 10.449 6.031c.236.139.543.058.679-.182l.096-.164.022-.038 2.374-4.114.053-.137.044-.075c.065-.113.084-.252.048-.379-.036-.127-.12-.235-.233-.3z" fill="#fff"/></svg>